<svg width="171" height="170" viewBox="0 0 171 170" fill="none" xmlns="http://www.w3.org/2000/svg">
<circle cx="85.6667" cy="85" r="85" fill="#456BF2"/>
<mask id="mask0" mask-type="alpha" maskUnits="userSpaceOnUse" x="0" y="0" width="171" height="170">
<circle cx="85.6667" cy="85" r="85" fill="#456BF2"/>
</mask>
<g mask="url(#mask0)">
<rect x="-20.1111" y="109.556" width="211.556" height="77.4444" fill="#3558D2"/>
<line x1="6.3335" y1="124.289" x2="165" y2="124.289" stroke="#CFD9E1" stroke-width="0.755556" stroke-dasharray="3.78 9.44"/>
<line x1="6.3335" y1="145.067" x2="165" y2="145.067" stroke="#CFD9E1" stroke-width="0.755556" stroke-dasharray="3.78 9.44"/>
<path d="M149.576 90.8838L149.576 92.425C149.576 95.2622 147.606 97.7187 144.836 98.3341L139.297 99.5651C132.462 101.084 125.482 101.85 118.482 101.85L82.8654 101.85C62.104 101.85 41.9026 95.1164 25.2932 82.6592C24.1231 81.489 23.4656 79.9018 23.4655 78.2468C23.4655 76.1414 25.1724 74.4346 27.2775 74.4347L30.1116 74.4347L23.6629 52.9364C22.7782 49.9875 24.9863 47.0192 28.0653 47.0195C29.3684 47.0196 30.61 47.5727 31.4817 48.5411L54.7859 74.4349L111.692 74.435C116.804 74.435 121.877 75.3287 126.682 77.0759L144.423 83.5272C147.517 84.6521 149.576 87.5922 149.576 90.8838Z" fill="#E5EDEF"/>
<path d="M147.331 85.4007L137.364 85.4007C133.51 85.4007 130.386 82.2762 130.385 78.4222L144.423 83.5268C145.546 83.9352 146.53 84.5845 147.331 85.4007Z" fill="#1635A3"/>
<path d="M31.482 48.5409L54.7862 74.4347L30.1124 74.4347L23.6631 52.9365C22.7783 49.9876 24.9865 47.0193 28.0655 47.0193C29.3686 47.0194 30.6102 47.5725 31.482 48.5409Z" fill="#4340E9"/>
<path d="M41.2862 66.2101C34.8801 66.2102 29.1594 63.28 25.3886 58.6876L23.6631 52.9364C22.7784 49.9875 24.9866 47.0192 28.0655 47.0195C29.3686 47.0196 30.6102 47.5727 31.482 48.5411L46.725 65.4778C44.9918 65.9518 43.1698 66.21 41.2862 66.2101Z" fill="#79A7FF"/>
<path d="M149.576 90.8838L149.576 92.425C149.576 95.2622 147.605 97.7187 144.836 98.3341L139.297 99.5649C132.463 101.084 125.483 101.85 118.481 101.85L82.8653 101.85C67.2734 101.85 51.9974 98.0514 38.3218 90.8837L83.7791 90.8837L69.2949 47.4308C68.3283 44.5308 70.4867 41.5362 73.5433 41.5361C74.8225 41.536 76.0406 42.0831 76.8905 43.0391L119.419 90.8836L147.608 90.8835L149.373 90.8835L149.576 90.8838Z" fill="#CFD9E1"/>
<path d="M71.4137 49.4222L108.268 90.8837L108.268 93.6251L83.7799 93.6253L83.7799 90.8839L70.0836 49.7957C70.1748 49.2233 70.9582 48.91 71.4137 49.4222Z" fill="#B7CBD7"/>
<path d="M44.0055 93.6253C42.0838 92.774 40.1877 91.8616 38.3226 90.8837L83.7798 90.8837L119.42 90.8836L147.608 90.8836L148.137 90.8837L149.374 90.8838L149.577 90.8838L149.576 92.4249C149.576 92.8349 149.531 93.2356 149.452 93.6253L44.0055 93.6253Z" fill="#4340E9"/>
<circle cx="134.016" cy="105.876" r="3.13374" fill="#1635A3"/>
<circle cx="83.8759" cy="105.876" r="3.13374" fill="#1635A3"/>
</g>
<path d="M40.3335 69.8889H50.6855L52.4134 71.7778H40.3335V69.8889Z" fill="#FEE903"/>
</svg>
